<svg width="8" height="8" viewBox="0 0 8 8" fill="none" xmlns="http://www.w3.org/2000/svg">
<g clip-path="url(#clip0)">
<path d="M4.19209 0.137953L5.21553 2.64738L7.81253 2.89109C7.85313 2.89488 7.89178 2.91107 7.9237 2.93767C7.95561 2.96426 7.97938 3.00009 7.99206 3.04071C8.00474 3.08133 8.00578 3.12496 7.99505 3.1662C7.98431 3.20743 7.96228 3.24446 7.93167 3.27269L5.96618 5.07011L6.54691 7.73246C6.5563 7.77495 6.55335 7.81941 6.53843 7.86012C6.52352 7.90084 6.49732 7.93594 6.46321 7.9609C6.42911 7.98587 6.38866 7.99956 6.34706 8.00021C6.30547 8.00086 6.26465 7.98845 6.22985 7.96456L4.00003 6.56785L1.7637 7.97002C1.72867 7.99195 1.68827 8.00261 1.64751 8.00068C1.60674 7.99875 1.56742 7.98431 1.53442 7.95915C1.50142 7.934 1.47618 7.89923 1.46185 7.85918C1.44752 7.81912 1.44472 7.77553 1.45381 7.73382L2.03454 5.07148L0.0709948 3.27269C0.0399683 3.24417 0.0177177 3.20663 0.0070641 3.16483C-0.0035895 3.12303 -0.00216621 3.07886 0.0111535 3.03791C0.0244732 2.99696 0.0490894 2.96108 0.081881 2.93482C0.114673 2.90856 0.154162 2.8931 0.195344 2.89041L2.78258 2.64738L3.80797 0.137953C3.82387 0.0983018 3.85057 0.0644531 3.88474 0.0406504C3.9189 0.0168477 3.95901 0.00415039 4.00003 0.00415039C4.04105 0.00415039 4.08116 0.0168477 4.11532 0.0406504C4.14949 0.0644531 4.17619 0.0983018 4.19209 0.137953Z" fill="white"/>
</g>
<defs>
<clipPath id="clip0">
<rect width="8" height="8" fill="white"/>
</clipPath>
</defs>
</svg>
