<svg width="65" height="55" viewBox="0 0 65 55" fill="none" xmlns="http://www.w3.org/2000/svg">
<path d="M1.99815 4.04184C0.921783 4.04184 0 3.12012 0 1.99802C0 0.921724 0.921783 0 1.99815 0H7.21968C7.27121 0 7.37426 0 7.42579 0C9.26936 0.0515249 10.9068 0.406474 12.2866 1.27667C13.821 2.24992 14.9489 3.73269 15.5615 5.93109C15.5615 5.98262 15.5615 6.03414 15.6131 6.08567L16.1226 8.12949H35.5946C31.707 17.3868 35.1881 29.9131 46.0433 33.3023H22.8728C23.5885 35.9644 24.3041 37.3956 25.2775 38.0597C26.4569 38.8269 28.5008 38.8784 31.9303 38.8269H31.9819H55.1123C56.2402 38.8269 57.1047 39.7486 57.1047 40.8249C57.1047 41.947 56.1829 42.8172 55.1123 42.8172H31.9819C27.7336 42.8687 25.1229 42.7657 23.0274 41.386C20.8804 39.9547 19.7525 37.4987 18.6246 33.0447L11.7713 7.11044C11.7713 7.05892 11.7713 7.05892 11.7198 7.00739C11.4106 5.87957 10.9011 5.11242 10.1854 4.70594C9.46974 4.24794 8.49643 4.04184 7.36854 4.04184C7.31701 4.04184 7.26548 4.04184 7.21395 4.04184H1.99815ZM49.1179 45.1759C51.8317 45.1759 54.0302 47.3743 54.0302 50.088C54.0302 52.8016 51.8317 55 49.1179 55C46.404 55 44.2055 52.8016 44.2055 50.088C44.2112 47.38 46.4098 45.1759 49.1179 45.1759ZM27.5791 45.1759C30.2929 45.1759 32.4914 47.3743 32.4914 50.088C32.4914 52.8016 30.2929 55 27.5791 55C24.8652 55 22.6667 52.8016 22.6667 50.088C22.6667 47.38 24.8652 45.1759 27.5791 45.1759Z" fill="#FBA922"/>
<path fill-rule="evenodd" clip-rule="evenodd" d="M52.1122 3.02271C59.2288 3.02271 64.9999 8.7935 64.9999 15.9097C64.9999 23.0258 59.2288 28.7966 52.1122 28.7966C35.1651 28.7966 35.1651 3.02271 52.1122 3.02271ZM46.4097 16.2532C46.5815 15.2513 47.7265 14.6902 48.6311 15.2341C48.7113 15.2856 48.7914 15.3429 48.8659 15.4059L48.8716 15.4116C49.2781 15.8009 49.7304 16.2074 50.177 16.6024L50.5663 16.9459L55.1466 12.1426C55.4214 11.8564 55.6218 11.6674 56.034 11.5758C57.4367 11.2667 58.4272 12.9842 57.4367 14.0319L51.7228 20.0374C51.1846 20.6099 50.2228 20.6614 49.6445 20.1118C49.3125 19.8084 48.9518 19.4935 48.5911 19.1729C47.9613 18.6233 47.32 18.0623 46.7933 17.5127C46.4727 17.2035 46.3353 16.6825 46.4097 16.2532Z" fill="#FF9F00"/>
</svg>
