<svg width="47" height="53" viewBox="0 0 47 53" fill="none" xmlns="http://www.w3.org/2000/svg">
<g clip-path="url(#clip0)">
<path d="M7.10825 12.426H9.93799C9.72783 13.1727 9.69086 13.9589 9.82997 14.7226C9.96909 15.4863 10.2805 16.2067 10.7397 16.827C11.1988 17.4473 11.7932 17.9506 12.4759 18.2971C13.1587 18.6437 13.9111 18.8241 14.674 18.8241C15.4369 18.8241 16.1893 18.6437 16.8721 18.2971C17.5548 17.9506 18.1492 17.4473 18.6083 16.827C19.0675 16.2067 19.3789 15.4863 19.518 14.7226C19.6571 13.9589 19.6202 13.1727 19.41 12.426H26.9419C26.7303 13.1736 26.6923 13.9611 26.8308 14.7262C26.9694 15.4913 27.2807 16.2132 27.7401 16.8349C28.1996 17.4565 28.7947 17.9609 29.4784 18.3083C30.1622 18.6557 30.9159 18.8365 31.68 18.8365C32.4441 18.8365 33.1978 18.6557 33.8815 18.3083C34.5653 17.9609 35.1604 17.4565 35.6198 16.8349C36.0793 16.2132 36.3906 15.4913 36.5291 14.7262C36.6677 13.9611 36.6297 13.1736 36.4181 12.426H39.8918C41.0504 12.4285 42.162 12.893 42.9884 13.72C43.7409 14.4967 44.2013 15.5181 44.2889 16.6055L46.9746 48.1821C46.9789 48.2352 46.9789 48.2885 46.9746 48.3416C46.9746 48.4279 46.9746 48.4926 46.9746 48.5271C46.9654 49.6535 46.5335 50.7337 45.7673 51.5463C45.0048 52.3646 43.9703 52.8643 42.8655 52.9481H42.7893H42.5563H4.4183H4.17684H4.10482C3.00049 52.8627 1.96654 52.3632 1.20306 51.5463C0.43915 50.7326 0.00887953 49.6528 0 48.5271C0 48.4883 0 48.4063 0 48.2942V48.1821L2.70689 16.6184V16.4847C2.76791 16.0035 2.90226 15.5349 3.10509 15.0959C3.32529 14.5978 3.63082 14.1435 4.00739 13.7545C4.06246 13.6984 4.12177 13.6466 4.17684 13.5992C4.55199 13.2583 4.98185 12.9855 5.44768 12.7926C5.97692 12.5695 6.54388 12.4537 7.11672 12.4519L7.10825 12.426Z" fill="#FF9F00"/>
<path d="M7.20586 14.3543H9.90005C10.0759 15.5416 10.6642 16.6254 11.5581 17.4086C12.4521 18.1918 13.5923 18.6225 14.7716 18.6225C15.951 18.6225 17.0912 18.1918 17.9851 17.4086C18.879 16.6254 19.4673 15.5416 19.6432 14.3543H26.9039C27.0798 15.5416 27.6681 16.6254 28.562 17.4086C29.4559 18.1918 30.5962 18.6225 31.7755 18.6225C32.9548 18.6225 34.095 18.1918 34.989 17.4086C35.8829 16.6254 36.4712 15.5416 36.6471 14.3543H39.9851C40.2878 14.3529 40.5877 14.4132 40.8671 14.5318C41.1464 14.6503 41.3997 14.8246 41.6118 15.0444C42.0252 15.4664 42.2724 16.028 42.3065 16.623L45.0007 48.1823C45.0007 48.2556 45.0007 48.3117 45.0007 48.3462C44.9895 48.9383 44.7612 49.5047 44.3606 49.9341C43.96 50.3635 43.4162 50.6248 42.8361 50.6667H42.6751H4.51591H4.3507C3.76947 50.6257 3.22451 50.3641 2.82366 49.9336C2.4228 49.5031 2.19526 48.9351 2.18604 48.3419C2.18604 48.3074 2.18604 48.2556 2.18604 48.178L4.88446 16.623C4.92639 16.0235 5.18258 15.4603 5.6046 15.0401C6.03527 14.6023 6.61851 14.3558 7.22704 14.3543H7.20586Z" fill="#FF9F00"/>
<path d="M15.3176 11.4212V10.0324C15.3243 7.9163 16.1523 5.88869 17.6211 4.39157C19.0899 2.89445 21.0804 2.04922 23.1587 2.04012C25.2385 2.04466 27.232 2.8867 28.7043 4.38245C30.1765 5.8782 31.0078 7.90619 31.0167 10.0238V11.4687C30.5978 11.6076 30.2246 11.8617 29.9384 12.2028C29.6522 12.5439 29.464 12.9588 29.3946 13.4019C29.3252 13.8449 29.3772 14.2989 29.545 14.7137C29.7128 15.1286 29.9898 15.4882 30.3456 15.753C30.7013 16.0178 31.1219 16.1775 31.561 16.2144C32.0002 16.2513 32.4408 16.1641 32.8344 15.9624C33.2279 15.7606 33.5592 15.4522 33.7916 15.071C34.024 14.6898 34.1485 14.2507 34.1515 13.8021C34.1583 13.3869 34.0597 12.977 33.8653 12.612C33.6708 12.247 33.3871 11.9394 33.0416 11.7188V10.0238C33.0349 7.36367 31.9926 4.8148 30.1432 2.93584C28.2938 1.05688 25.7882 0.00113286 23.1756 0V0C20.563 0.00342111 18.0583 1.06136 16.2105 2.94194C14.3627 4.82251 13.3226 7.37229 13.3181 10.0324V11.8439C12.8855 12.1791 12.5779 12.6542 12.4458 13.191C12.3137 13.7279 12.365 14.2946 12.5913 14.7978C12.8176 15.301 13.2054 15.7108 13.6909 15.9598C14.1764 16.2087 14.7307 16.282 15.2625 16.1675C15.7943 16.053 16.2721 15.7576 16.6171 15.3299C16.962 14.9022 17.1538 14.3676 17.1607 13.8142C17.1676 13.2608 16.9892 12.7214 16.655 12.285C16.3208 11.8485 15.8506 11.5408 15.3218 11.4126L15.3176 11.4212Z" fill="#FF9F00"/>
<path fill-rule="evenodd" clip-rule="evenodd" d="M23.9307 25C29.4909 25 34 29.478 34 35C34 40.522 29.4909 45 23.9307 45C10.6898 45 10.6898 25 23.9307 25ZM19.4753 35.2665C19.6095 34.4891 20.5041 34.0538 21.2109 34.4758C21.2735 34.5158 21.3362 34.5602 21.3943 34.6091L21.3988 34.6135C21.7164 34.9156 22.0698 35.231 22.4187 35.5375L22.7229 35.8041L26.3015 32.0769C26.5162 31.8547 26.6728 31.7081 26.9949 31.637C28.0908 31.3972 28.8647 32.7299 28.0908 33.5429L23.6265 38.203C23.206 38.6473 22.4545 38.6873 22.0027 38.2608C21.7432 38.0253 21.4614 37.781 21.1796 37.5322C20.6875 37.1057 20.1865 36.6704 19.775 36.2439C19.5245 36.004 19.4171 35.5997 19.4753 35.2665Z" fill="white"/>
</g>
<defs>
<clipPath id="clip0">
<rect width="47" height="53" fill="white"/>
</clipPath>
</defs>
</svg>
