<svg width="41" height="53" viewBox="0 0 41 53" fill="none" xmlns="http://www.w3.org/2000/svg">
<path fill-rule="evenodd" clip-rule="evenodd" d="M39.3516 27.3552C38.0027 33.8424 34.6672 40.4374 29.7311 45.8161L29.7181 45.8376C27.2892 48.4774 24.4742 50.8454 21.2948 52.7648C20.9131 53.0494 20.3709 53.0883 19.9372 52.8122C15.2528 49.849 11.3274 46.2862 8.23043 42.4215C3.96672 37.1032 1.27316 31.2027 0.357961 25.5178C-0.57459 19.7552 0.297237 14.217 3.18164 9.69665C4.32239 7.91526 5.77109 6.29347 7.54945 4.89166C11.6136 1.67395 16.2677 -0.0297985 20.8914 0.000394456C25.3503 0.039214 29.7485 1.68257 33.5654 5.14614C34.9057 6.35817 36.0248 7.72979 36.94 9.23513C40.0413 14.3119 40.7092 20.799 39.3516 27.3552ZM20.0066 5.71549C24.0101 5.71549 27.6492 7.33297 30.2647 9.94682C32.8931 12.5607 34.5197 16.1623 34.5197 20.1477C34.5197 24.1289 32.8931 27.7477 30.2647 30.3486C27.6362 32.9625 24.0144 34.58 20.0066 34.58C16.0031 34.58 12.364 32.9625 9.74853 30.3486C7.12004 27.7348 5.4935 24.1332 5.4935 20.1477C5.4935 16.1666 7.12004 12.552 9.74853 9.94682C12.3814 7.33297 15.9988 5.71549 20.0066 5.71549Z" fill="#FF9F00"/>
<path d="M25.1975 22.3759C25.1975 23.1222 25.019 23.7388 24.6621 24.2255C24.316 24.7123 23.8346 25.0746 23.2181 25.3126C22.6123 25.5397 21.9092 25.6533 21.1088 25.6533H17.4906V14.2958H20.9141C21.9958 14.2958 22.8719 14.5338 23.5426 15.0097C24.2132 15.4748 24.5485 16.1887 24.5485 17.1514C24.5485 17.7247 24.3917 18.2115 24.078 18.6117C23.7643 19.0011 23.3316 19.2985 22.78 19.5041C23.4831 19.6879 24.0618 20.0178 24.5161 20.4938C24.9704 20.9589 25.1975 21.5863 25.1975 22.3759ZM20.7843 15.8697H19.4052V18.8551H20.7843C21.3143 18.8551 21.747 18.7253 22.0823 18.4657C22.4176 18.1952 22.5853 17.8275 22.5853 17.3624C22.5853 16.8864 22.4176 16.5187 22.0823 16.2591C21.747 15.9995 21.3143 15.8697 20.7843 15.8697ZM19.4052 24.0795H20.9952C21.6442 24.0795 22.1797 23.9227 22.6015 23.609C23.0234 23.2845 23.2343 22.8085 23.2343 22.1812C23.2343 21.5646 23.0234 21.1049 22.6015 20.8021C22.1797 20.4992 21.6442 20.3478 20.9952 20.3478H19.4052V24.0795Z" fill="#FF9F00"/>
</svg>
